<svg fill="none" height="49" viewBox="0 0 180 49" width="180" xmlns="http://www.w3.org/2000/svg"><g fill="#000"><path d="m11.7658 47.8962c-3.26184 0-6.00256-.7977-8.2183-2.3929-2.2196-1.5952-3.400813-3.7327-3.5475-6.4163h6.26892c.44006 2.6836 2.32768 4.0274 5.66288 4.0274 1.3549 0 2.4358-.2436 3.2464-.7347.8068-.4912 1.2082-1.2063 1.2082-2.1493s-.3088-1.6856-.9341-2.2317c-.6215-.5462-1.6676-.998-3.1345-1.3595l-4.50867-1.1945c-4.69397-1.2337-7.037096-3.9723-7.037096-8.2158 0-2.2867.934166-4.1256 2.802486-5.5243 1.86832-1.3949 4.34269-2.0942 7.42308-2.0942 3.0804 0 5.4043.7426 7.3112 2.2317s2.9685 3.4655 3.1885 5.9291h-6.0489c-.5867-2.2475-2.0883-3.3712-4.5087-3.3712-1.20821 0-2.18097.2436-2.9144.7347s-1.10015 1.1709-1.10015 2.0392c0 1.5599 1.22753 2.6483 3.68265 3.2651l4.6167 1.1984c4.8754 1.2338 7.315 3.9724 7.315 8.2158 0 2.5736-.9997 4.5617-2.9954 5.9566-1.9996 1.3948-4.5898 2.0942-7.7783 2.0942z"/><path d="m80.1523 47.786v-15.2018c0-2.2749-.413-4.047-1.2353-5.3161-.826-1.2691-2.1732-1.772-3.7868-1.772-1.9417 0-3.3738.6365-4.5434 2.1649-1.1735 1.5285-1.795 3.6738-1.8683 6.4359v13.697h-6.0489v-15.2057c0-2.275-.4131-4.0471-1.2353-5.3162s-2.1733-1.772-3.7868-1.772c-2.015 0-3.4935.6719-4.6824 2.275s-1.7834 3.8623-1.7834 6.7699v13.249h-6.0489v-28.0383h6.0489v4.3771c1.6869-2.9076 4.2887-4.3653 7.8053-4.3653 4.1419 0 6.983 1.3123 8.5232 5.0057.7721-1.7524 1.9533-2.5814 3.5475-3.5519 1.5943-.9705 3.3429-1.4538 5.2499-1.4538 3.0765 0 5.4968 1.0609 7.2571 3.1905 1.7602 2.1256 2.6403 4.4674 2.6403 8.0861v16.742h-6.0488z"/><path d="m110.756 48.0571c-2.787 0-5.049-.7937-6.79-2.3772-1.745-1.5873-2.613-3.8898-2.613-6.9113v-13.4887h-4.9106v-5.5401h4.9106v-9.74029h6.048v9.75209h7.864v5.5283h-7.864v12.4789c0 1.717.363 2.939 1.101 3.6659.733.7269 1.906 1.0923 3.52 1.0923 1.32 0 2.401-.1847 3.246-.5619v5.4851c-1.32.4086-2.821.6169-4.508.6169z"/><path d="m117.677 47.7822.008-28.0382h6.049v5.0293c.513-1.5678 1.455-2.8369 2.829-3.8074 1.375-.9705 2.849-1.3555 4.428-1.3555.953 0 1.741-.0275 2.366.1218v5.8072c-10.059 0-9.619 9.8857-9.619 11.2452l-.008 10.9937h-6.049z"/><path d="m135.276 47.7861v-28.0383h6.049v28.0383z"/><path d="m37.9568 19.74-5.8057 12.6204-5.8327-12.5929h-6.7051l9.1679 19.9167-3.7482 8.1491h6.7282l12.9007-28.0933z"/><path d="m88.3745 47.786v-28.0304h6.0489v28.0304z"/><path d="m94.358 10.0037h-5.964v6.1451h5.964z"/><path d="m141.229 10.0037h-5.964v6.1569h5.964z"/></g><path d="m179.996 23.7868c0 6.5184-4.374 11.9878-10.295 13.5516v9.6538c0 .4322-.344.7819-.768.7819-.425 0-.768-.3497-.768-.7819v-9.3395s0 0-.004 0v-27.73571c6.689.95481 11.839 6.79741 11.839 13.86981z" fill="#0040f2"/><path d="m162.721 10.2432v-9.461303c0-.432205.344-.781897.769-.781897.424 0 .768.349692.768.781897l.011 36.874903c-6.689-.9548-11.8-6.7974-11.8-13.8699 0-6.5027 4.354-11.9642 10.252-13.5437z" fill="#0040f2"/></svg>