<?xml version="1.0" encoding="UTF-8"?>
<svg width="40" height="40" viewBox="0 0 24 24" fill="none" xmlns="http://www.w3.org/2000/svg">
  <path stroke="currentColor" stroke-width="1" stroke-linecap="round" stroke-linejoin="round" d="m16.58548,14.96535c0.32626,0.3248 0.57644,0.7403 0.96269,0.5384c0.14923,-0.07754 0.3087,-0.18873 0.44623,-0.32041c0.22824,-0.21799 0.50329,-0.58083 0.28383,-0.87051c-0.75932,-0.73006 -2.21798,-1.95756 -2.22237,-1.96049l0.46086,-0.52231c0.00146,0.00146 0.31456,0.27652 0.72128,0.65983c0.52962,0.50036 1.27139,0.98756 1.62984,1.48792c0.2019,0.28091 0.15947,0.77688 0.05267,1.06803c-0.08486,0.23409 -0.25018,0.45501 -0.44623,0.64228c-0.18434,0.17703 -0.40234,0.32919 -0.60717,0.43453c-0.20629,0.1068 -0.41404,0.16825 -0.59107,0.16971c-0.00585,0.0278 -0.01317,0.05706 -0.02048,0.08486c-0.05852,0.19751 -0.18434,0.37015 -0.34235,0.51207c-0.14192,0.12729 -0.31309,0.23262 -0.48427,0.3087c-0.18727,0.08193 -0.38332,0.12875 -0.55888,0.13167c-0.00585,0.05706 -0.01756,0.11265 -0.03365,0.16825c-0.05852,0.19751 -0.18434,0.37015 -0.34235,0.51207c-0.14192,0.12729 -0.31309,0.23262 -0.48427,0.3087c-0.25164,0.11119 -0.52085,0.15655 -0.73152,0.11997c-0.00732,0.07462 -0.02195,0.1463 -0.04243,0.21361l0,0.00146c-0.06291,0.20629 -0.18288,0.38039 -0.3365,0.50914c-0.15362,0.12875 -0.34089,0.21214 -0.53986,0.23994c-0.2414,0.03365 -0.49744,-0.01463 -0.72567,-0.16386c-0.06291,-0.04097 -0.13167,-0.09364 -0.21214,-0.15801l-0.04535,-0.03511l-0.68032,-0.52523l0.42428,-0.55011l0.68032,0.52523l0.04535,0.03511c0.06291,0.04828 0.11558,0.09071 0.16971,0.12436c0.079,0.05267 0.16679,0.06876 0.24872,0.05852c0.06876,-0.01024 0.13314,-0.0395 0.18727,-0.08486c0.05267,-0.04389 0.0951,-0.10534 0.11704,-0.17703l0,0c0.0278,-0.0951 0.02341,-0.21361 -0.0278,-0.35113c-0.58083,-0.81053 -1.79516,-1.7937 -1.79809,-1.79662l0.43891,-0.53986c0.00293,0.00146 0.49451,0.40088 1.02121,0.91587c0.14045,0.13753 0.29554,0.28968 0.45793,0.43453c0.02926,0.02633 0.05998,0.05267 0.08925,0.079l0,0l0,0c0.00585,0.00585 0.01317,0.0117 0.01902,0.01756c0.03804,0.03365 0.07608,0.06876 0.11412,0.10388c0.12875,0.11558 0.25603,0.23262 0.38917,0.33504c0.15801,0.11265 0.15508,0.13606 0.33504,0.08193c0.03804,-0.0117 0.079,-0.03219 0.1229,-0.05121c0.10827,-0.04682 0.21361,-0.11265 0.29846,-0.18873c0.06876,-0.06291 0.12143,-0.12875 0.14045,-0.19312c0.01463,-0.05121 0.00439,-0.11265 -0.04535,-0.18142c-0.58376,-0.81199 -2.18872,-2.22237 -2.19311,-2.22676l0.46086,-0.52231c0.00293,0.00293 0.89539,0.78712 1.62252,1.55376c0.19751,0.19459 0.49158,0.46086 0.70373,0.62618c0.07754,0.0556 0.13167,0.12729 0.24872,0.08632c0.04974,-0.01756 0.11265,-0.04243 0.18288,-0.07315c0.10827,-0.04682 0.21361,-0.11265 0.29846,-0.18873c0.06876,-0.06145 0.12143,-0.12875 0.14045,-0.19312c0.01463,-0.05121 0.00439,-0.11265 -0.04535,-0.18288c-0.58376,-0.81199 -2.18872,-2.22237 -2.19311,-2.22676l0.46086,-0.52231c0.00146,0 1.02706,0.9027 1.77468,1.71762z"/>
  <path stroke="currentColor" stroke-width="1" stroke-linecap="round" stroke-linejoin="round" d="m23.15164,12.50012l-2.15361,-7.602l-0.09364,-0.33211l-0.33211,0.09071l-2.75638,0.7564l-0.33943,0.09364l0.0951,0.3365l0.13021,0.4594c-1.3226,0.11997 -2.61154,-0.1624 -3.81417,-0.42428c-2.39355,-0.52231 -4.46815,-0.97439 -6.07019,1.57863l0,0c-0.43306,0.69202 -0.90563,1.51426 -1.01536,2.14337c-0.15069,0.85588 0.18434,1.40453 1.53913,1.15581c0.83247,-0.15216 1.346,-0.57059 1.82442,-0.96122c0.54133,-0.44184 1.02852,-0.83833 1.97365,-0.55742c0.49597,0.20483 0.54133,0.22385 0.92904,0.55011c1.28895,1.08119 4.35257,3.75126 4.38915,3.78198l0,0l0.63496,0.55888l0.17703,0.15508l0.20922,-0.1068l1.27285,-0.64667l0.07754,0.27359l0.33358,-0.0951l2.74907,-0.77834l0.33504,-0.0951l-0.0951,-0.33504l0,0zm-4.77832,0.94806l-0.45793,-0.40234l-0.00146,0c-0.00878,-0.00732 -3.14702,-2.74322 -4.40085,-3.79369c-0.46964,-0.39356 -0.52231,-0.41551 -1.11923,-0.66276l-0.01463,-0.00585l-0.03219,-0.0117c-1.30211,-0.39356 -1.92684,0.11704 -2.62032,0.68324c-0.41258,0.3365 -0.85296,0.69641 -1.50987,0.81638c-0.61448,0.11265 -0.77834,-0.06291 -0.72714,-0.35259c0.09071,-0.51646 0.52085,-1.25968 0.91733,-1.89319l0,-0.00146c1.33869,-2.13751 3.19384,-1.73371 5.33281,-1.267c1.29187,0.28091 2.67884,0.58376 4.15506,0.42282l1.66202,5.86683l-1.18361,0.60131l0,0zm1.93415,-0.50475l-1.96926,-6.95381l2.08484,-0.57205l1.96487,6.93631l-2.08046,0.58955z"/>
  <path stroke="currentColor" stroke-width="1" stroke-linecap="round" stroke-linejoin="round" d="m6.44807,5.84178l-0.13899,0.48866c0.62326,0.01317 1.80394,0.00293 2.78711,-0.21946l0.15216,0.67885c-1.15581,0.26189 -2.54863,0.25018 -3.13385,0.23116l-1.55376,5.48497c0.58961,0.18581 1.70006,0.66861 1.78931,1.68982l-0.69495,0.05998c-0.05413,-0.61887 -0.83686,-0.94513 -1.28456,-1.08266l-0.08339,0.29407l-0.0951,0.33504l-0.33358,-0.0951l-2.74907,-0.77834l-0.33504,-0.0951l0.0951,-0.33358l2.15361,-7.602l0.09364,-0.33211l0.33211,0.09071l2.75638,0.7564l0.33943,0.09364l-0.09656,0.33504l0,0l0,0zm-2.73444,7.10164l1.96926,-6.95387l-2.08484,-0.57205l-1.96487,6.93631l2.08046,0.58961z"/>
  <path stroke="currentColor" stroke-width="1" stroke-linecap="round" stroke-linejoin="round" d="m11.67549,17.51399l0,0c-0.0673,-0.04974 -0.14923,-0.06584 -0.22824,-0.05413s-0.15216,0.05267 -0.2019,0.11851l-0.5384,0.73006l0.00146,0c-0.04974,0.0673 -0.0673,0.15069 -0.0556,0.22824c0.0117,0.07754 0.05267,0.15069 0.11851,0.20044l0.01024,0.00878c0.06437,0.04389 0.14338,0.05852 0.21799,0.04682c0.079,-0.0117 0.15216,-0.05267 0.2019,-0.11851l0.53986,-0.73152c0.04974,-0.0673 0.06584,-0.14923 0.05413,-0.22824c-0.01317,-0.07754 -0.05413,-0.15069 -0.11997,-0.20044l0,0l0,0zm-3.92237,-4.29112c0.2575,0.1902 0.41551,0.46818 0.4594,0.76225c0.01902,0.12582 0.01756,0.25457 -0.00585,0.38039c0.11558,-0.05852 0.23994,-0.09802 0.36723,-0.11704c0.30578,-0.04535 0.62765,0.02341 0.89539,0.22092l0,0.00146c0.2692,0.19751 0.4316,0.48573 0.47695,0.79151c0.01902,0.12143 0.01756,0.24579 -0.00146,0.36869c0.03658,-0.00878 0.07169,-0.01609 0.10827,-0.02195c0.27652,-0.04097 0.56913,0.02195 0.81053,0.20044l0.01756,0.01463c0.23262,0.17849 0.37454,0.43453 0.41551,0.70226c0.01317,0.08339 0.01609,0.16825 0.00878,0.25311c0.01317,-0.00293 0.02487,-0.00439 0.03804,-0.00585c0.25164,-0.03804 0.52085,0.02048 0.74323,0.18434l0,0c0.22385,0.16532 0.35845,0.4038 0.39649,0.65691c0.03804,0.25164 -0.02048,0.52085 -0.18581,0.74323l-0.53986,0.73152c-0.16532,0.22385 -0.4038,0.35845 -0.65691,0.39649c-0.25164,0.03804 -0.51938,-0.02048 -0.74323,-0.18434l0,0.00146c-0.22238,-0.16386 -0.35845,-0.4038 -0.39649,-0.65837c-0.00439,-0.02926 -0.00732,-0.05852 -0.00878,-0.08778c-0.06145,0.02048 -0.12436,0.03658 -0.18727,0.04535c-0.27505,0.04097 -0.56766,-0.02195 -0.81053,-0.2019l0,0c-0.24287,-0.17995 -0.39063,-0.44038 -0.4316,-0.71543c-0.00878,-0.0556 -0.01317,-0.11119 -0.0117,-0.16825c-0.09217,0.03804 -0.18727,0.06584 -0.28529,0.08047c-0.30578,0.04535 -0.62765,-0.02341 -0.89539,-0.22092l0,0c-0.26774,-0.19751 -0.4316,-0.4872 -0.47695,-0.79297c-0.02341,-0.15069 -0.01756,-0.30578 0.01902,-0.45647c-0.09656,0.04389 -0.19897,0.07315 -0.30285,0.08925c-0.29407,0.04389 -0.60424,-0.02341 -0.86174,-0.21214c-0.2575,-0.1902 -0.41551,-0.46818 -0.4594,-0.76225s0.02341,-0.60424 0.21214,-0.86174l0.00146,0l0.67008,-0.90855c0.1902,-0.25896 0.46818,-0.41551 0.76079,-0.4594c0.29115,-0.04682 0.60131,0.02048 0.86027,0.21068l0,0l0,0l0,0zm-0.2297,0.86466c-0.01756,-0.11851 -0.08047,-0.2297 -0.18142,-0.30431l0,-0.00146c-0.10241,-0.07462 -0.22677,-0.10095 -0.34674,-0.08339c-0.11997,0.01756 -0.23116,0.08047 -0.30578,0.18142l-0.67008,0.90709l0.00146,0c-0.07608,0.10241 -0.10241,0.22824 -0.08486,0.34674c0.01756,0.11851 0.08047,0.2297 0.18142,0.30431c0.10241,0.07608 0.22824,0.10241 0.34674,0.08486s0.2297,-0.08047 0.30431,-0.18142l0.00146,0l0.67008,-0.90709l-0.00146,0c0.07462,-0.10241 0.10241,-0.22824 0.08486,-0.34674l0,0l0,0zm1.73365,1.27724c-0.01902,-0.13021 -0.08778,-0.25311 -0.19897,-0.33504l0,0.00146c-0.11265,-0.08339 -0.25018,-0.11265 -0.38039,-0.09364c-0.13167,0.02048 -0.25311,0.08778 -0.3365,0.19897l-0.70812,0.95976c-0.08193,0.11265 -0.11119,0.25018 -0.09217,0.38039c0.01902,0.13021 0.08778,0.25164 0.19897,0.33504l0,0c0.11265,0.08339 0.25018,0.11265 0.38039,0.09364c0.13167,-0.01902 0.25311,-0.08778 0.3365,-0.19897l0,0l0.70812,-0.95976c0.08339,-0.11265 0.11265,-0.25018 0.09217,-0.38186l0,0l0,0zm1.35039,1.26407c-0.01463,-0.10241 -0.0673,-0.19751 -0.15362,-0.26042l0,0.00146c-0.08778,-0.06437 -0.19459,-0.08778 -0.29554,-0.07169c-0.10095,0.01463 -0.19605,0.0673 -0.25896,0.15508l-0.0117,0.01463l-0.60278,0.81784l0,0.00146c-0.06437,0.08632 -0.08632,0.19312 -0.07023,0.29407c0.01609,0.10241 0.06876,0.19751 0.15508,0.26042l0,0c0.08632,0.06437 0.19312,0.08632 0.29554,0.07023c0.10241,-0.01609 0.19751,-0.06876 0.26042,-0.15508l0.61454,-0.83247c0.05992,-0.08632 0.08333,-0.19312 0.06724,-0.29554z"/>
</svg>